<svg width="23" height="24" viewBox="0 0 23 24" fill="none" xmlns="http://www.w3.org/2000/svg">
<path d="M5.29193 20.2605C4.35916 20.0829 3.41306 19.1484 3.162 18.2159C2.96069 17.4682 2.961 16.9158 3.08616 16.1523C3.20446 15.4307 3.38917 14.7471 3.51594 14.0287C3.61596 13.462 3.97042 12.9249 4.18273 12.3823C4.35831 11.9336 4.75626 11.3615 5.18133 11.1277C5.49358 10.956 5.73608 10.6897 6.08829 10.5937C6.693 10.4287 7.27189 10.1788 7.88957 10.047C8.18502 9.98389 8.45881 9.9648 8.7586 9.9648C9.0376 9.9648 9.4623 9.88684 9.71613 10.0217C10.275 10.3186 10.8264 10.4939 11.3215 10.9065C11.6816 11.2067 11.9566 11.6238 12.2885 11.9557C12.5887 12.2559 13.0082 12.5752 13.167 12.9796C13.743 14.4457 14.2579 16.0118 13.3819 17.4606C13.1549 17.836 12.9027 18.4618 12.5413 18.7247C12.3545 18.8606 12.2308 19.053 12.0357 19.1924C11.8086 19.3546 11.4856 19.5207 11.233 19.6348C10.9756 19.751 10.7537 19.9121 10.4998 20.033C10.2814 20.137 10.0671 20.3505 9.84253 20.4185C9.47693 20.5293 9.19091 20.9277 8.7744 20.9431C8.28701 20.9612 7.49543 21.2966 7.05529 20.9115C6.77188 20.6635 6.34079 20.6146 6.13253 20.2605C5.87239 19.8183 5.69011 19.4122 5.69011 18.8701C5.69011 18.4837 5.63323 18.1054 5.63323 17.7198C5.63323 17.5246 5.62372 17.3269 5.63323 17.132C5.6439 16.9132 5.77301 16.7224 5.80388 16.5063C5.92821 15.6359 6.29884 14.641 6.79932 13.9181C7.23055 13.2952 7.72999 12.752 8.53423 12.752C9.09108 12.752 9.7231 13.017 10.1017 13.441C10.6786 14.0871 11.032 15.372 10.5788 16.165C10.4319 16.4221 10.266 16.669 10.1269 16.9297C9.96585 17.2318 9.5826 17.3327 9.29267 17.4543C8.95228 17.5971 8.48038 17.8287 8.11078 17.6439C6.8708 17.0239 8.69091 15.3632 9.1789 14.9073C9.40993 14.6914 10.35 13.9698 10.2944 14.6924C10.2457 15.3257 9.78665 15.8506 9.45067 16.3546C9.11848 16.8529 8.73004 17.2718 8.26246 17.6439C8.04511 17.8169 7.79493 18.2005 7.54195 18.2728C7.45686 18.2971 7.39659 18.4214 7.39659 18.4972" stroke="#FFD469" stroke-width="5" stroke-linecap="round"/>
<path d="M4.89864 6.62494C4.28486 5.81474 3.93164 5.09582 3.93164 4.03363C3.93164 3.63307 4.22019 3.19298 4.52891 2.95286C4.82071 2.7259 5.10993 2.07434 5.52435 2.07434C5.62665 2.07434 5.96567 1.92547 6.03629 2.04906C6.11074 2.17935 6.33218 2.34495 6.44711 2.45988C6.6589 2.67167 7.05337 3.03126 7.1139 3.30364C7.16566 3.53656 7.23082 3.7678 7.23082 4.00835C7.23082 4.35326 7.06465 4.47535 6.95905 4.76046C6.90424 4.90845 6.72463 5.17702 6.57984 5.25976C6.44593 5.33628 6.36582 5.58177 6.23538 5.68322C5.44307 6.29946 4.68693 3.83642 5.30946 3.3384C5.62719 3.08422 6.29085 3.79653 6.3207 4.06523C6.36588 4.47183 6.43433 4.6708 6.17534 5.00379C5.90222 5.35494 5.52435 5.50518 5.52435 5.97079C5.52435 6.26695 6.16476 6.45117 6.36495 6.271C6.50098 6.14857 6.62716 6.12122 6.74416 5.97079C6.83114 5.85896 6.9664 5.65908 7.00645 5.51889C7.09977 5.19229 7.17394 4.94132 7.17394 4.57717" stroke="#FFD469" stroke-width="3" stroke-linecap="round"/>
<path d="M11.7088 6.32975C11.6579 6.06879 11.5986 5.88444 11.7657 5.6756C11.8956 5.51324 12.0217 5.36193 12.107 5.16998C12.1706 5.02679 12.4021 4.885 12.4925 4.73704C12.5924 4.57351 12.764 4.46556 12.8907 4.32623C13.1221 4.07162 13.3544 3.77004 13.7281 3.77004C13.9023 3.77004 14.0152 3.71316 14.1832 3.71316C14.4302 3.71316 14.4961 3.83883 14.6698 3.96913C14.8573 4.10975 15.6588 5.13456 15.2924 5.35011C14.9819 5.53272 14.8439 6.03162 14.5213 6.21599C14.3822 6.29545 14.2185 6.46862 14.0979 6.58256C14.0083 6.66715 13.8 6.94432 13.6997 6.95546C13.5396 6.97324 13.417 7.11653 13.2446 7.12611C13.0752 7.13552 12.9024 7.12611 12.7327 7.12611C12.3324 7.12611 11.8794 6.94812 11.8794 6.44352C11.8794 6.20068 11.6651 5.99878 11.6519 5.76093C11.6402 5.55059 11.595 5.35781 11.595 5.14786C11.595 4.9631 11.5456 4.72323 11.6772 4.59168C11.8214 4.44743 11.924 4.23739 12.0785 4.08289C12.3539 3.80752 12.6398 3.40198 13.0455 3.31182C13.3787 3.23779 13.6693 3.29647 13.9841 3.31498C14.299 3.33351 14.4391 4.24107 14.4391 4.48107C14.4391 5.10776 13.5975 5.3143 13.3457 5.81781C13.2722 5.96489 13.1405 6.09832 13.1308 6.27287C13.1162 6.53568 13.4727 6.50006 13.6428 6.38663" stroke="#FFD469" stroke-width="3" stroke-linecap="round"/>
<path d="M16.6875 11.1073C16.9607 10.4071 17.0736 9.69737 17.5976 9.17331C17.9424 8.82849 18.2029 8.74613 18.6657 8.59184C19.0053 8.47865 19.3712 8.37695 19.7307 8.37695C20.1325 8.37695 20.1113 8.72792 20.3564 8.94578C20.5833 9.14746 20.6579 9.59117 20.9221 9.74213C21.3322 9.97648 20.2247 10.715 20.0878 10.8671C20.0128 10.9505 19.9227 10.9944 19.8413 11.0757C19.757 11.16 19.633 11.2912 19.5316 11.3475C19.4147 11.4124 19.3506 11.5362 19.2188 11.5655C19.1176 11.588 18.9411 11.591 18.849 11.6319C18.4774 11.7971 17.745 11.6101 17.5407 11.2527C17.5012 11.1835 17.375 11.1347 17.3701 11.0504C17.3629 10.9282 17.3701 10.8032 17.3701 10.6807C17.3701 10.3254 17.7913 9.86856 18.0495 9.65997C18.3815 9.39186 18.7883 9.24813 19.1903 9.11643C19.3819 9.05367 19.5753 9.02847 19.7718 8.99002C20.144 8.91719 19.259 9.3867 19.1492 9.46088C18.9184 9.61689 18.6215 10.0203 18.6215 10.311" stroke="#FFD469" stroke-width="3" stroke-linecap="round"/>
</svg>
